<?xml version="1.0" encoding="UTF-8" standalone="no"?>
<!-- Created with Inkscape (http://www.inkscape.org/) -->

<svg
   xmlns:dc="http://purl.org/dc/elements/1.1/"
   xmlns:cc="http://creativecommons.org/ns#"
   xmlns:rdf="http://www.w3.org/1999/02/22-rdf-syntax-ns#"
   xmlns:svg="http://www.w3.org/2000/svg"
   xmlns="http://www.w3.org/2000/svg"
   xmlns:xlink="http://www.w3.org/1999/xlink"
   xmlns:sodipodi="http://sodipodi.sourceforge.net/DTD/sodipodi-0.dtd"
   xmlns:inkscape="http://www.inkscape.org/namespaces/inkscape"
   width="1280"
   height="800"
   viewBox="0 0 338.66666 211.66667"
   version="1.1"
   id="svg8"
   inkscape:version="0.92.2 2405546, 2018-03-11"
   sodipodi:docname="promo-screenshot.svg"
   inkscape:export-filename="/home/mokush/dev/righttasks/artwork/promo/promo-screenshot-dock.png"
   inkscape:export-xdpi="96"
   inkscape:export-ydpi="96">
  <defs
     id="defs2"><filter
   inkscape:collect="always"
   style="color-interpolation-filters:sRGB"
   id="filter1006"
   x="-0.026304372"
   width="1.0526087"
   y="-0.043324848"
   height="1.0866497">
  <feGaussianBlur
     inkscape:collect="always"
     stdDeviation="0.217"
     id="feGaussianBlur1008" />
</filter>
<rect
   height="32"
   width="32"
   id="SVGID_1_" />

	<defs
   id="defs1097">
		<rect
   height="32"
   width="32"
   id="rect1095"
   x="0"
   y="0" />

	</defs>

	<clipPath
   id="clipPath1101">
		<use
   id="use1099"
   overflow="visible"
   xlink:href="#SVGID_1_"
   style="overflow:visible"
   x="0"
   y="0"
   width="100%"
   height="100%" />

	</clipPath>

	
	
		
	
		
	
		
	
		
<filter
   inkscape:collect="always"
   style="color-interpolation-filters:sRGB"
   id="filter1124"
   x="-0.098597521"
   width="1.197195"
   y="-0.093535828"
   height="1.1870717">
  <feGaussianBlur
     inkscape:collect="always"
     stdDeviation="0.59428363"
     id="feGaussianBlur1126" />
</filter>
</defs>
  <sodipodi:namedview
     id="base"
     pagecolor="#ffffff"
     bordercolor="#666666"
     borderopacity="1.0"
     inkscape:pageopacity="0.0"
     inkscape:pageshadow="2"
     inkscape:zoom="2.8"
     inkscape:cx="1159.9245"
     inkscape:cy="286.32745"
     inkscape:document-units="mm"
     inkscape:current-layer="g1020"
     showgrid="false"
     inkscape:window-width="1884"
     inkscape:window-height="1051"
     inkscape:window-x="36"
     inkscape:window-y="0"
     inkscape:window-maximized="1"
     units="px"
     showguides="true"
     inkscape:guide-bbox="true">
    <sodipodi:guide
       position="50.270832,237.36905"
       orientation="1,0"
       id="guide904"
       inkscape:locked="false" />
    <sodipodi:guide
       position="199.19345,128.51191"
       orientation="0,1"
       id="guide908"
       inkscape:locked="false" />
  </sodipodi:namedview>
  <metadata
     id="metadata5">
    <rdf:RDF>
      <cc:Work
         rdf:about="">
        <dc:format>image/svg+xml</dc:format>
        <dc:type
           rdf:resource="http://purl.org/dc/dcmitype/StillImage" />
        <dc:title></dc:title>
      </cc:Work>
    </rdf:RDF>
  </metadata>
  <g
     inkscape:label="visual-tweaks"
     inkscape:groupmode="layer"
     id="layer1"
     transform="translate(0,-85.333317)">
    <image
       sodipodi:absref="/home/mokush/dev/righttasks/artwork/screenshots/default.png"
       xlink:href="screenshots/default.png"
       style="opacity:1"
       width="340"
       height="213.56252"
       preserveAspectRatio="none"
       id="image842"
       x="0"
       y="84.437469" />
    <rect
       style="opacity:0.92000002;fill:#ffffff;fill-opacity:1;fill-rule:evenodd;stroke:none;stroke-width:0.50461882;stroke-linecap:round;stroke-miterlimit:4;stroke-dasharray:none;stroke-opacity:1"
       id="rect888"
       width="263.79108"
       height="227.44638"
       x="-3.4745038"
       y="78.106239" />
    <text
       xml:space="preserve"
       style="font-style:normal;font-weight:normal;font-size:10.58333302px;line-height:6.61458302px;font-family:sans-serif;letter-spacing:0px;word-spacing:0px;fill:#00bcd4;fill-opacity:1;stroke:none;stroke-width:0.26458332px;stroke-linecap:butt;stroke-linejoin:miter;stroke-opacity:1"
       x="50.648811"
       y="152.73341"
       id="text900"><tspan
         sodipodi:role="line"
         id="tspan898"
         x="50.648811"
         y="152.73341"
         style="font-style:normal;font-variant:normal;font-weight:600;font-stretch:normal;font-size:12.69999981px;line-height:13.22916698px;font-family:'Open Sans';-inkscape-font-specification:'Open Sans Semi-Bold';fill:#00bcd4;fill-opacity:1;stroke-width:0.26458332px">Visual tweaks for</tspan><tspan
         sodipodi:role="line"
         x="50.648811"
         y="165.96259"
         style="font-style:normal;font-variant:normal;font-weight:600;font-stretch:normal;font-size:12.69999981px;line-height:13.22916698px;font-family:'Open Sans';-inkscape-font-specification:'Open Sans Semi-Bold';fill:#00bcd4;fill-opacity:1;stroke-width:0.26458332px"
         id="tspan902">a clear view of your tasks</tspan></text>
  </g>
  <g
     transform="translate(0,-85.333317)"
     id="g960"
     inkscape:groupmode="layer"
     inkscape:label="hide-appbar">
    <image
       sodipodi:absref="/home/mokush/dev/righttasks/artwork/screenshots/hide-appbar.png"
       xlink:href="screenshots/hide-appbar.png"
       width="340"
       height="213.56252"
       preserveAspectRatio="none"
       id="image976"
       x="-1.4210855e-14"
       y="84.437469" />
    <rect
       y="78.106239"
       x="-3.4745038"
       height="227.44638"
       width="263.79108"
       id="rect952"
       style="opacity:0.92000002;fill:#ffffff;fill-opacity:1;fill-rule:evenodd;stroke:none;stroke-width:0.50461882;stroke-linecap:round;stroke-miterlimit:4;stroke-dasharray:none;stroke-opacity:1" />
    <text
       id="text958"
       y="152.73341"
       x="50.648811"
       style="font-style:normal;font-weight:normal;font-size:10.58333302px;line-height:6.61458302px;font-family:sans-serif;letter-spacing:0px;word-spacing:0px;fill:#00bcd4;fill-opacity:1;stroke:none;stroke-width:0.26458332px;stroke-linecap:butt;stroke-linejoin:miter;stroke-opacity:1"
       xml:space="preserve"><tspan
         id="tspan956"
         style="font-style:normal;font-variant:normal;font-weight:600;font-stretch:normal;font-size:12.69999981px;line-height:13.22916698px;font-family:'Open Sans';-inkscape-font-specification:'Open Sans Semi-Bold';fill:#00bcd4;fill-opacity:1;stroke-width:0.26458332px"
         y="152.73341"
         x="50.648811"
         sodipodi:role="line">Hide the Applications bar</tspan><tspan
         style="font-style:normal;font-variant:normal;font-weight:600;font-stretch:normal;font-size:12.69999981px;line-height:13.22916698px;font-family:'Open Sans';-inkscape-font-specification:'Open Sans Semi-Bold';fill:#00bcd4;fill-opacity:1;stroke-width:0.26458332px"
         y="165.96259"
         x="50.648811"
         sodipodi:role="line"
         id="tspan981">for less distraction</tspan></text>
  </g>
  <g
     transform="translate(0,-85.333317)"
     id="g927"
     inkscape:groupmode="layer"
     inkscape:label="resize">
    <image
       sodipodi:absref="/home/mokush/dev/righttasks/artwork/screenshots/resized.png"
       xlink:href="screenshots/resized.png"
       width="340"
       height="213.56252"
       preserveAspectRatio="none"
       id="image943"
       x="0"
       y="84.437469" />
    <rect
       y="78.106239"
       x="-3.4745038"
       height="227.44638"
       width="291.00537"
       id="rect919"
       style="opacity:0.92000002;fill:#ffffff;fill-opacity:1;fill-rule:evenodd;stroke:none;stroke-width:0.53000981;stroke-linecap:round;stroke-miterlimit:4;stroke-dasharray:none;stroke-opacity:1" />
    <text
       id="text925"
       y="152.73341"
       x="50.648811"
       style="font-style:normal;font-weight:normal;font-size:10.58333302px;line-height:6.61458302px;font-family:sans-serif;letter-spacing:0px;word-spacing:0px;fill:#00bcd4;fill-opacity:1;stroke:none;stroke-width:0.26458332px;stroke-linecap:butt;stroke-linejoin:miter;stroke-opacity:1"
       xml:space="preserve"><tspan
         style="font-style:normal;font-variant:normal;font-weight:600;font-stretch:normal;font-size:12.69999981px;line-height:13.22916698px;font-family:'Open Sans';-inkscape-font-specification:'Open Sans Semi-Bold';fill:#00bcd4;fill-opacity:1;stroke-width:0.26458332px"
         y="152.73341"
         x="50.648811"
         sodipodi:role="line"
         id="tspan933">Resize the sidebar to fit everything,</tspan><tspan
         style="font-style:normal;font-variant:normal;font-weight:600;font-stretch:normal;font-size:12.69999981px;line-height:13.22916698px;font-family:'Open Sans';-inkscape-font-specification:'Open Sans Semi-Bold';fill:#00bcd4;fill-opacity:1;stroke-width:0.26458332px"
         y="165.96259"
         x="50.648811"
         sodipodi:role="line"
         id="tspan948">or take up less space</tspan></text>
    <polygon
       id="polygon998"
       points="16,10.5 13.2,7.7 11.7,9.1 7.7,13.2 10.5,16 2,16 2,7.5 4.9,10.3 8.9,6.3 10.3,4.9 7.5,2 16,2 "
       style="fill:#cccccc;filter:url(#filter1006)"
       transform="matrix(0.29490022,0.29490022,-0.29490022,0.29490022,289.3779,153.54201)" />
    <g
       id="g996"
       transform="matrix(0.29490022,0.29490022,-0.29490022,0.29490022,289.3779,153.54201)">
      <polygon
         id="polygon983"
         points="2,7.5 4.9,10.3 8.9,6.3 10.3,4.9 7.5,2 16,2 16,10.5 13.2,7.7 11.7,9.1 7.7,13.2 10.5,16 2,16 "
         style="fill:#ffffff" />
      <polygon
         id="polygon985"
         points="3,9.9 4.9,11.8 9.3,7.3 11.8,4.9 9.9,3 15,3 15,8.1 13.2,6.3 10.7,8.7 6.3,13.2 8.1,15 3,15 " />
    </g>
  </g>
  <g
     transform="translate(0,-85.333317)"
     id="g1020"
     inkscape:groupmode="layer"
     inkscape:label="docked">
    <image
       sodipodi:absref="/home/mokush/dev/righttasks/artwork/screenshots/docked.png"
       xlink:href="screenshots/docked.png"
       width="340"
       height="213.82812"
       preserveAspectRatio="none"
       id="image1034"
       x="-1"
       y="84.17186" />
    <rect
       y="78.106239"
       x="-3.4745038"
       height="227.44638"
       width="339.76428"
       id="rect1012"
       style="opacity:0.92000002;fill:#ffffff;fill-opacity:1;fill-rule:evenodd;stroke:none;stroke-width:0.57269353;stroke-linecap:round;stroke-miterlimit:4;stroke-dasharray:none;stroke-opacity:1" />
    <text
       id="text1018"
       y="152.73341"
       x="50.648811"
       style="font-style:normal;font-weight:normal;font-size:10.58333302px;line-height:6.61458302px;font-family:sans-serif;letter-spacing:0px;word-spacing:0px;fill:#00bcd4;fill-opacity:1;stroke:none;stroke-width:0.26458332px;stroke-linecap:butt;stroke-linejoin:miter;stroke-opacity:1"
       xml:space="preserve"><tspan
         id="tspan1016"
         style="font-style:normal;font-variant:normal;font-weight:600;font-stretch:normal;font-size:12.69999981px;line-height:13.22916698px;font-family:'Open Sans';-inkscape-font-specification:'Open Sans Semi-Bold';fill:#00bcd4;fill-opacity:1;stroke-width:0.26458332px"
         y="152.73341"
         x="50.648811"
         sodipodi:role="line">Hide and show the sidebar</tspan><tspan
         style="font-style:normal;font-variant:normal;font-weight:600;font-stretch:normal;font-size:12.69999981px;line-height:13.22916698px;font-family:'Open Sans';-inkscape-font-specification:'Open Sans Semi-Bold';fill:#00bcd4;fill-opacity:1;stroke-width:0.26458332px"
         y="165.96259"
         x="50.648811"
         sodipodi:role="line"
         id="tspan1024">with a single click</tspan></text>
    <g
       id="g1139"
       transform="matrix(1.5263637,0,0,1.5263637,-179.16001,-98.463072)">
      <path
         transform="matrix(-0.26458333,0,0,0.26458333,341.36046,190.32987)"
         style="fill:#cccccc;filter:url(#filter1124)"
         inkscape:connector-curvature="0"
         clip-path="url(#SVGID_2_)"
         d="M 11.3,20.4 C 11,20 10.7,19.3 10.1,18.4 9.8,17.9 8.9,16.9 8.6,16.5 8.4,16.1 8.4,15.9 8.5,15.5 c 0.1,-0.6 0.7,-1.1 1.4,-1.1 0.5,0 1,0.4 1.4,0.7 0.2,0.2 0.5,0.6 0.7,0.8 0.2,0.2 0.2,0.3 0.4,0.5 0.2,0.3 0.3,0.5 0.2,0.1 C 12.5,16 12.4,15.2 12.2,14.4 12.1,13.8 12,13.7 11.9,13.3 11.8,12.8 11.7,12.5 11.6,12 11.5,11.7 11.4,10.9 11.3,10.5 11.2,10 11.2,9.1 11.6,8.7 c 0.3,-0.3 0.9,-0.4 1.3,-0.2 0.5,0.3 0.8,1 0.9,1.3 0.2,0.5 0.4,1.2 0.5,2 0.2,1 0.5,2.5 0.5,2.8 0,-0.4 -0.1,-1.1 0,-1.5 0.1,-0.3 0.3,-0.7 0.7,-0.8 0.3,-0.1 0.6,-0.1 0.9,-0.1 0.3,0.1 0.6,0.3 0.8,0.5 0.4,0.6 0.4,1.9 0.4,1.8 0.1,-0.4 0.1,-1.2 0.3,-1.6 0.1,-0.2 0.5,-0.4 0.7,-0.5 0.3,-0.1 0.7,-0.1 1,0 0.2,0 0.6,0.3 0.7,0.5 0.2,0.3 0.3,1.3 0.4,1.7 0,0.1 0.1,-0.4 0.3,-0.7 0.4,-0.6 1.8,-0.8 1.9,0.6 0,0.7 0,0.6 0,1.1 0,0.5 0,0.8 0,1.2 0,0.4 -0.1,1.3 -0.2,1.7 -0.1,0.3 -0.4,1 -0.7,1.4 0,0 -1.1,1.2 -1.2,1.8 -0.1,0.6 -0.1,0.6 -0.1,1 0,0.4 0.1,0.9 0.1,0.9 0,0 -0.8,0.1 -1.2,0 -0.4,-0.1 -0.9,-0.8 -1,-1.1 -0.2,-0.3 -0.5,-0.3 -0.7,0 -0.2,0.4 -0.7,1.1 -1.1,1.1 -0.7,0.1 -2.1,0 -3.1,0 0,0 0.2,-1 -0.2,-1.4 -0.3,-0.3 -0.8,-0.8 -1.1,-1.1 z"
         id="path1103" />
      <g
         transform="matrix(-0.26458333,0,0,0.26458333,341.38692,190.06529)"
         id="g1074">
	<defs
   id="defs1059">
		<rect
   y="0"
   x="0"
   id="rect1084"
   width="32"
   height="32" />

	</defs>

	<clipPath
   id="SVGID_2_">
		<use
   height="100%"
   width="100%"
   y="0"
   x="0"
   style="overflow:visible"
   xlink:href="#SVGID_1_"
   overflow="visible"
   id="use1061" />

	</clipPath>

	<path
   style="fill:#ffffff"
   inkscape:connector-curvature="0"
   clip-path="url(#SVGID_2_)"
   d="M 11.3,20.4 C 11,20 10.7,19.3 10.1,18.4 9.8,17.9 8.9,16.9 8.6,16.5 8.4,16.1 8.4,15.9 8.5,15.5 c 0.1,-0.6 0.7,-1.1 1.4,-1.1 0.5,0 1,0.4 1.4,0.7 0.2,0.2 0.5,0.6 0.7,0.8 0.2,0.2 0.2,0.3 0.4,0.5 0.2,0.3 0.3,0.5 0.2,0.1 C 12.5,16 12.4,15.2 12.2,14.4 12.1,13.8 12,13.7 11.9,13.3 11.8,12.8 11.7,12.5 11.6,12 11.5,11.7 11.4,10.9 11.3,10.5 11.2,10 11.2,9.1 11.6,8.7 c 0.3,-0.3 0.9,-0.4 1.3,-0.2 0.5,0.3 0.8,1 0.9,1.3 0.2,0.5 0.4,1.2 0.5,2 0.2,1 0.5,2.5 0.5,2.8 0,-0.4 -0.1,-1.1 0,-1.5 0.1,-0.3 0.3,-0.7 0.7,-0.8 0.3,-0.1 0.6,-0.1 0.9,-0.1 0.3,0.1 0.6,0.3 0.8,0.5 0.4,0.6 0.4,1.9 0.4,1.8 0.1,-0.4 0.1,-1.2 0.3,-1.6 0.1,-0.2 0.5,-0.4 0.7,-0.5 0.3,-0.1 0.7,-0.1 1,0 0.2,0 0.6,0.3 0.7,0.5 0.2,0.3 0.3,1.3 0.4,1.7 0,0.1 0.1,-0.4 0.3,-0.7 0.4,-0.6 1.8,-0.8 1.9,0.6 0,0.7 0,0.6 0,1.1 0,0.5 0,0.8 0,1.2 0,0.4 -0.1,1.3 -0.2,1.7 -0.1,0.3 -0.4,1 -0.7,1.4 0,0 -1.1,1.2 -1.2,1.8 -0.1,0.6 -0.1,0.6 -0.1,1 0,0.4 0.1,0.9 0.1,0.9 0,0 -0.8,0.1 -1.2,0 -0.4,-0.1 -0.9,-0.8 -1,-1.1 -0.2,-0.3 -0.5,-0.3 -0.7,0 -0.2,0.4 -0.7,1.1 -1.1,1.1 -0.7,0.1 -2.1,0 -3.1,0 0,0 0.2,-1 -0.2,-1.4 -0.3,-0.3 -0.8,-0.8 -1.1,-1.1 z"
   id="path1064" />

	
		<path
   style="fill:none;stroke:#000000;stroke-width:0.75;stroke-linecap:round;stroke-linejoin:round"
   inkscape:connector-curvature="0"
   clip-path="url(#SVGID_2_)"
   d="M 11.3,20.4 C 11,20 10.7,19.3 10.1,18.4 9.8,17.9 8.9,16.9 8.6,16.5 8.4,16.1 8.4,15.9 8.5,15.5 c 0.1,-0.6 0.7,-1.1 1.4,-1.1 0.5,0 1,0.4 1.4,0.7 0.2,0.2 0.5,0.6 0.7,0.8 0.2,0.2 0.2,0.3 0.4,0.5 0.2,0.3 0.3,0.5 0.2,0.1 C 12.5,16 12.4,15.2 12.2,14.4 12.1,13.8 12,13.7 11.9,13.3 11.8,12.8 11.7,12.5 11.6,12 11.5,11.7 11.4,10.9 11.3,10.5 11.2,10 11.2,9.1 11.6,8.7 c 0.3,-0.3 0.9,-0.4 1.3,-0.2 0.5,0.3 0.8,1 0.9,1.3 0.2,0.5 0.4,1.2 0.5,2 0.2,1 0.5,2.5 0.5,2.8 0,-0.4 -0.1,-1.1 0,-1.5 0.1,-0.3 0.3,-0.7 0.7,-0.8 0.3,-0.1 0.6,-0.1 0.9,-0.1 0.3,0.1 0.6,0.3 0.8,0.5 0.4,0.6 0.4,1.9 0.4,1.8 0.1,-0.4 0.1,-1.2 0.3,-1.6 0.1,-0.2 0.5,-0.4 0.7,-0.5 0.3,-0.1 0.7,-0.1 1,0 0.2,0 0.6,0.3 0.7,0.5 0.2,0.3 0.3,1.3 0.4,1.7 0,0.1 0.1,-0.4 0.3,-0.7 0.4,-0.6 1.8,-0.8 1.9,0.6 0,0.7 0,0.6 0,1.1 0,0.5 0,0.8 0,1.2 0,0.4 -0.1,1.3 -0.2,1.7 -0.1,0.3 -0.4,1 -0.7,1.4 0,0 -1.1,1.2 -1.2,1.8 -0.1,0.6 -0.1,0.6 -0.1,1 0,0.4 0.1,0.9 0.1,0.9 0,0 -0.8,0.1 -1.2,0 -0.4,-0.1 -0.9,-0.8 -1,-1.1 -0.2,-0.3 -0.5,-0.3 -0.7,0 -0.2,0.4 -0.7,1.1 -1.1,1.1 -0.7,0.1 -2.1,0 -3.1,0 0,0 0.2,-1 -0.2,-1.4 -0.3,-0.3 -0.8,-0.8 -1.1,-1.1 z"
   id="path1066" />

	
		<line
   style="fill:none;stroke:#000000;stroke-width:0.75;stroke-linecap:round"
   clip-path="url(#SVGID_2_)"
   x1="19.6"
   y1="20.700001"
   x2="19.6"
   y2="17.299999"
   id="line1068" />

	
		<line
   style="fill:none;stroke:#000000;stroke-width:0.75;stroke-linecap:round"
   clip-path="url(#SVGID_2_)"
   x1="17.6"
   y1="20.700001"
   x2="17.5"
   y2="17.299999"
   id="line1070" />

	
		<line
   style="fill:none;stroke:#000000;stroke-width:0.75;stroke-linecap:round"
   clip-path="url(#SVGID_2_)"
   x1="15.6"
   y1="17.299999"
   x2="15.6"
   y2="20.700001"
   id="line1072" />

</g>
    </g>
  </g>
</svg>
